# xmcd CD database file
#
# Track frame offsets:
#	150
#	16158
#	34947
#	52103
#	67340
#	80709
#	100981
#	118230
#	132696
#	149402
#
# Disc length: 2197 seconds
#
# Revision: 0
# Processed by: cddbd v1.5.2PL0 Copyright (c) Steve Scherf et al.
# Submitted via: CDex 1.51
#
DISCID=9f08930a
DTITLE=Daniel - Daniel
DYEAR=2006
DGENRE=Rhythmic Soul
TTITLE0=Only One Moment
TTITLE1=Let Me In
TTITLE2=No Other Sun
TTITLE3=Just The Two Of Us
TTITLE4=Love Won´t Wait
TTITLE5=As Soon As I
TTITLE6=Keep It Real
TTITLE7=I Won´t Let You Down
TTITLE8=All Or Nothing
TTITLE9=Love Will Keep Us Together
EXTD=YEAR: 2006
EXTT0=
EXTT1=
EXTT2=
EXTT3=
EXTT4=
EXTT5=
EXTT6=
EXTT7=
EXTT8=
EXTT9=
PLAYORDER=
